<svg width="40" height="40" viewBox="0 0 40 40" fill="none" xmlns="http://www.w3.org/2000/svg">
<path fill-rule="evenodd" clip-rule="evenodd" d="M20.0001 22.3566L29.4284 31.7849C29.7428 32.0885 30.1638 32.2565 30.6008 32.2527C31.0378 32.2489 31.4558 32.0736 31.7648 31.7646C32.0738 31.4556 32.2491 31.0376 32.2529 30.6006C32.2567 30.1636 32.0887 29.7426 31.7851 29.4283L22.3568 19.9999L31.7851 10.5716C32.0887 10.2573 32.2567 9.83625 32.2529 9.39925C32.2491 8.96226 32.0738 8.54424 31.7648 8.23523C31.4558 7.92621 31.0378 7.75093 30.6008 7.74713C30.1638 7.74334 29.7428 7.91133 29.4284 8.21492L20.0001 17.6433L10.5718 8.21492C10.256 7.91883 9.83747 7.7572 9.40466 7.76423C8.97186 7.77126 8.55877 7.94639 8.25279 8.25258C7.94682 8.55877 7.77198 8.97198 7.76526 9.40479C7.75853 9.8376 7.92046 10.256 8.21678 10.5716L17.6434 19.9999L8.21511 29.4283C8.05593 29.582 7.92896 29.7659 7.84161 29.9692C7.75426 30.1726 7.70828 30.3913 7.70636 30.6126C7.70444 30.8339 7.74661 31.0534 7.83041 31.2582C7.91421 31.463 8.03797 31.6491 8.19445 31.8056C8.35094 31.9621 8.53703 32.0858 8.74186 32.1696C8.94668 32.2534 9.16615 32.2956 9.38745 32.2937C9.60875 32.2918 9.82745 32.2458 10.0308 32.1584C10.2341 32.0711 10.418 31.9441 10.5718 31.7849L20.0001 22.3566Z" fill="white"/>
</svg>
