<svg width="24" height="24" viewBox="0 0 24 24" fill="none" xmlns="http://www.w3.org/2000/svg">
<path d="M11.9995 16C12.296 16.0005 12.5807 15.8841 12.7917 15.676L18.6735 9.88783C18.7769 9.78555 18.8591 9.66378 18.9151 9.52957C18.9711 9.39535 19 9.25137 19 9.10593C19 8.9605 18.9711 8.81651 18.9151 8.6823C18.8591 8.54809 18.7769 8.42632 18.6735 8.32404C18.462 8.11636 18.1773 8 17.8808 8C17.5843 8 17.2996 8.11636 17.088 8.32404L11.9995 13.3314L6.91097 8.32504C6.69946 8.11766 6.415 8.00148 6.11873 8.00148C5.82245 8.00148 5.53799 8.11766 5.32649 8.32504C5.22305 8.42732 5.14094 8.54909 5.0849 8.6833C5.02886 8.81751 5 8.9615 5 9.10693C5 9.25236 5.02886 9.39635 5.0849 9.53056C5.14094 9.66478 5.22305 9.78655 5.32649 9.88883L11.2073 15.677C11.4185 15.8847 11.7032 16.0008 11.9995 16Z" fill="#034269"/>
</svg>
