<svg width="32" height="22" viewBox="0 0 32 22" fill="none" xmlns="http://www.w3.org/2000/svg">
<mask id="mask0_152_844" style="mask-type:luminance" maskUnits="userSpaceOnUse" x="0" y="0" width="32" height="22">
<rect width="32" height="22" fill="white"/>
</mask>
<g mask="url(#mask0_152_844)">
<path fill-rule="evenodd" clip-rule="evenodd" d="M0 0V22H32V0H0Z" fill="#F7FCFF"/>
<mask id="mask1_152_844" style="mask-type:luminance" maskUnits="userSpaceOnUse" x="0" y="0" width="32" height="22">
<path fill-rule="evenodd" clip-rule="evenodd" d="M0 0V22H32V0H0Z" fill="white"/>
</mask>
<g mask="url(#mask1_152_844)">
<path fill-rule="evenodd" clip-rule="evenodd" d="M0 0V7.33333H32V0H0Z" fill="#BF2714"/>
<path fill-rule="evenodd" clip-rule="evenodd" d="M0 14.6665V21.9998H32V14.6665H0Z" fill="#272727"/>
<path d="M12.2605 9.36865L13.2595 9.41063L13.0087 14.4246L12.0098 14.3826L12.2605 9.36865Z" fill="#C09302"/>
<path d="M13.3045 9.67969L14.3029 9.73143L14.0521 13.7971L13.0537 13.7454L13.3045 9.67969Z" fill="#C09302"/>
<path d="M14.3484 9.98438L15.3451 10.0593L15.0943 12.8607L14.0977 12.7857L14.3484 9.98438Z" fill="#C09302"/>
<path d="M19.7395 9.36865L18.7405 9.41063L18.9913 14.4246L19.9902 14.3826L19.7395 9.36865Z" fill="#C09302"/>
<path d="M18.6955 9.67969L17.6971 9.73143L17.9479 13.7971L18.9463 13.7454L18.6955 9.67969Z" fill="#C09302"/>
<path d="M17.6516 9.98438L16.6549 10.0593L16.9057 12.8607L17.9023 12.7857L17.6516 9.98438Z" fill="#C09302"/>
<path d="M15.9738 14.0492L14.999 13.8445L15.4116 12.1938L16.3863 12.3986L15.9738 14.0492Z" fill="#C09302"/>
<path d="M16.7196 14.0492L17.6943 13.8445L17.2818 12.1938L16.307 12.3986L16.7196 14.0492Z" fill="#C09302"/>
<path d="M16.4727 14.0342H15.4727V12.4136H16.4727V14.0342Z" fill="#C09302"/>
<path d="M14.6346 10.0039L15.6343 10.0264L15.5759 12.2089L14.5762 12.1864L14.6346 10.0039Z" fill="#C09302"/>
<path d="M16.3738 10.0039L17.3735 10.0264L17.3151 12.2089L16.3154 12.1864L16.3738 10.0039Z" fill="#C09302"/>
<path d="M13.3379 14.5962L13.5976 13.7109C14.6586 13.9725 15.4734 14.1019 16.0289 14.1019C16.5845 14.1019 17.3992 13.9725 18.4602 13.7109L18.7199 14.5962C17.5815 14.8768 16.6888 15.0185 16.0289 15.0185C15.369 15.0185 14.4763 14.8768 13.3379 14.5962Z" fill="#C09302"/>
<path d="M12.2828 9.37081C12.2162 8.76526 12.6028 8.35534 13.2581 8.40762C13.4735 8.42481 13.7155 8.48324 14.0378 8.58348C14.132 8.61309 14.132 8.61309 14.2235 8.6428C14.6666 8.78726 14.7869 8.82439 14.8119 8.82928C14.7137 8.8089 15.0029 8.32969 15.0692 8.24892C15.0771 8.30021 15.0438 8.29292 14.9638 8.27825L14.0618 8.11277L14.7039 7.50891C14.9284 7.29784 15.2273 7.19317 15.5683 7.19317C15.6037 7.19317 15.6367 7.19166 15.7451 7.18555C15.8252 7.18108 15.8252 7.18108 15.9153 7.17767C16.5392 7.15913 16.9867 7.32087 16.9867 7.90905C16.9867 8.11948 17.0157 8.45787 17.0636 8.71458C17.0797 8.80094 17.1108 8.88177 17.019 8.91727C17.0228 8.88664 17.2414 8.80758 17.5812 8.67729L17.622 8.66167C18.6095 8.28387 18.7248 8.24882 19.0431 8.42614C19.2552 8.54431 19.4572 8.75686 19.6835 9.07376L18.8468 9.57582C18.7009 9.37141 18.5846 9.24739 18.5293 9.21275C18.6551 9.29286 18.2314 9.42184 18.0072 9.5076L17.9671 9.52298C17.1983 9.81771 17.0969 9.85287 16.8771 9.85287C16.2789 9.85287 16.0641 9.29117 16.0053 8.48675C15.8207 9.04369 15.2701 9.74654 14.8163 9.74654C14.6177 9.74654 14.7132 9.77536 13.8884 9.50646C13.802 9.47842 13.802 9.47842 13.7165 9.45155C13.4667 9.37384 13.2864 9.33025 13.1727 9.32095C13.1774 9.31603 13.1941 9.29952 13.2129 9.28477L12.2828 9.37081Z" fill="#C09302"/>
</g>
</g>
</svg>
