<svg width="62" height="62" viewBox="0 0 62 62" fill="none" xmlns="http://www.w3.org/2000/svg">
<path d="M32.9482 13.1338L33.7798 15.1274C34.7485 15.3415 35.6967 15.6445 36.6185 16.0343C38.5741 16.8627 40.3311 18.0489 41.84 19.5597C43.3489 21.0704 44.5337 22.8294 45.3612 24.7874C45.7523 25.714 46.0554 26.6674 46.2693 27.6409C46.5232 28.797 46.6513 29.9828 46.6513 31.1882H54.7512L48.2596 28.4734C47.083 20.5679 40.843 14.3173 32.9482 13.1338Z" fill="white" fill-opacity="0.8"/>
<path d="M32.961 13.0489C32.9303 13.0443 32.8996 13.0566 32.8806 13.081C32.8615 13.1054 32.8571 13.1382 32.869 13.1668L33.7005 15.1604C33.7113 15.1862 33.7339 15.2052 33.7612 15.2112C34.7248 15.4241 35.668 15.7256 36.585 16.1133C38.5305 16.9374 40.2781 18.1174 41.7793 19.6203C43.2805 21.1233 44.459 22.873 45.2821 24.8208C45.6712 25.7425 45.9728 26.691 46.1854 27.6594L46.2693 27.6409L46.1854 27.6594C46.438 28.8093 46.5655 29.9889 46.5655 31.1882C46.5655 31.2356 46.6039 31.274 46.6513 31.274H54.7512C54.7921 31.274 54.8273 31.2452 54.8353 31.2051C54.8434 31.165 54.822 31.1248 54.7843 31.109L48.3373 28.4129C47.1371 20.4927 40.8772 14.2356 32.961 13.0489Z" stroke="white" stroke-opacity="0.8" stroke-width="0.171635" stroke-linejoin="round"/>
<path d="M30.2292 14.8287C30.2766 14.8287 30.3151 14.7903 30.3151 14.7429V6.61914C30.3151 6.57824 30.2862 6.54302 30.2461 6.53499C30.206 6.52696 30.1658 6.54835 30.15 6.5861L27.4512 13.055C19.5372 14.258 13.2862 20.5305 12.1055 28.461C12.101 28.4917 12.1133 28.5224 12.1377 28.5414C12.1622 28.5604 12.195 28.5648 12.2235 28.5528L14.2139 27.7203C14.2397 27.7095 14.2586 27.6869 14.2646 27.6596C14.4773 26.6912 14.7788 25.7427 15.1679 24.821C15.991 22.8732 17.1696 21.1235 18.6707 19.6205C20.1719 18.1176 21.9196 16.9376 23.865 16.1135C24.7852 15.7244 25.732 15.4221 26.6988 15.2092C27.8478 14.9563 29.0264 14.8287 30.2247 14.8287H30.2292Z" fill="white" stroke="white" stroke-width="0.171635" stroke-linejoin="round"/>
<path d="M30.3087 55.8055L33.0148 49.3192C40.9211 48.1103 47.1643 41.841 48.3441 33.916C48.3486 33.8853 48.3363 33.8546 48.3119 33.8356C48.2874 33.8166 48.2547 33.8122 48.2261 33.8241L46.2357 34.6567C46.21 34.6674 46.191 34.6901 46.185 34.7174C45.9724 35.6858 45.6708 36.6342 45.2817 37.5559C44.4586 39.5037 43.2801 41.2535 41.7789 42.7565C40.2777 44.2594 38.53 45.4394 36.5846 46.2634C35.6699 46.6503 34.7285 46.9513 33.7677 47.1637L33.7676 47.1637C32.6145 47.4193 31.4323 47.5478 30.2295 47.5483C30.1821 47.5483 30.1437 47.5867 30.1437 47.6341V55.7725C30.1437 55.8134 30.1725 55.8486 30.2126 55.8566C30.2527 55.8646 30.2929 55.8432 30.3087 55.8055Z" fill="white" stroke="white" stroke-width="0.171635" stroke-linejoin="round"/>
<path d="M23.831 46.3424C21.8753 45.514 20.1184 44.3278 18.6094 42.817C17.1005 41.3063 15.9157 39.5473 15.0883 37.5892C14.6971 36.6627 14.394 35.7093 14.1802 34.7357C13.9263 33.5796 13.7982 32.3939 13.7982 31.1885H5.69824L12.1898 33.9032C13.3669 41.8102 19.6082 48.0612 27.5044 49.2433L26.6729 47.2497C25.7032 47.0357 24.7537 46.7326 23.831 46.3424Z" fill="white" fill-opacity="0.8"/>
<path d="M5.66513 31.2676L12.1122 33.9638C13.3128 41.8853 19.5741 48.1429 27.4917 49.3282C27.5223 49.3328 27.553 49.3205 27.5721 49.2961C27.5911 49.2717 27.5955 49.2389 27.5836 49.2103L26.7521 47.2167C26.7413 47.1909 26.7187 47.1719 26.6914 47.1659C25.7269 46.953 24.7823 46.6516 23.8644 46.2633C21.919 45.4393 20.1713 44.2593 18.6701 42.7564C17.169 41.2534 15.9904 39.5036 15.1673 37.5558C14.7782 36.6341 14.4767 35.6857 14.264 34.7173L14.1802 34.7357L14.264 34.7173C14.0114 33.5674 13.884 32.3878 13.884 31.1885C13.884 31.1411 13.8456 31.1027 13.7982 31.1027H5.69824C5.65736 31.1027 5.62215 31.1315 5.6141 31.1716C5.60606 31.2117 5.62741 31.2519 5.66513 31.2676Z" stroke="white" stroke-opacity="0.8" stroke-width="0.171635" stroke-linejoin="round"/>
<path d="M4.65837 32.0221C4.6415 31.9472 4.63329 31.8048 4.63329 31.5944V31.2854C4.63329 30.9632 4.58907 30.7231 4.50063 30.5661C4.41219 30.4091 4.26221 30.2882 4.05023 30.2028C4.3037 30.1157 4.48559 29.9664 4.59546 29.7551C4.70578 29.5442 4.76048 29.3293 4.76048 29.1106C4.76048 28.9299 4.7313 28.7683 4.67341 28.6268C4.61506 28.4853 4.53619 28.3566 4.43636 28.2398C4.31601 28.0983 4.16876 27.991 3.99553 27.9185C3.82184 27.8459 3.5743 27.8062 3.25246 27.7998H1V32.3986H1.93818V30.5953H2.92925C3.21189 30.5953 3.40426 30.6442 3.50729 30.7419C3.61032 30.8395 3.66365 31.0353 3.66776 31.3283L3.67414 31.756C3.67596 31.8911 3.68964 32.0235 3.71471 32.1522C3.72702 32.2147 3.74799 32.2969 3.77717 32.3986H4.83342V32.2832C4.74179 32.227 4.68389 32.1399 4.65882 32.0212L4.65837 32.0221ZM3.51139 29.7601C3.40335 29.8099 3.24152 29.835 3.02544 29.835H1.93818V28.5994H3.0537C3.26158 28.5994 3.41703 28.6264 3.52097 28.6807C3.70605 28.7765 3.79814 28.9637 3.79814 29.2421C3.79814 29.5 3.7024 29.6725 3.51139 29.7601Z" fill="white"/>
<path d="M58.6614 27.7998L57.8326 31.416L56.9974 27.7998H55.6016V32.3986H56.496V29.2882C56.496 29.1987 56.4951 29.0732 56.4928 28.9121C56.4905 28.751 56.4896 28.6268 56.4896 28.5392L57.353 32.3986H58.2848L59.1542 28.5392C59.1542 28.6264 59.1533 28.751 59.151 28.9121C59.1487 29.0732 59.1478 29.1987 59.1478 29.2882V32.3986H60.0422V27.7998H58.6618H58.6614Z" fill="white"/>
<path d="M31.5008 58.7761C31.6545 58.6971 31.7707 58.6095 31.85 58.5141C31.9913 58.3434 32.062 58.1179 32.062 57.8372C32.062 57.5565 31.9913 57.3306 31.85 57.1352C31.6152 56.8171 31.2164 56.6537 30.6534 56.6455H28.4219V61.2443H30.5034C30.7382 61.2443 30.9556 61.2233 31.1562 61.1818C31.3568 61.1403 31.5305 61.0631 31.6782 60.9509C31.809 60.8532 31.9179 60.7322 32.0055 60.5889C32.1427 60.3726 32.2111 60.1284 32.2111 59.8559C32.2111 59.5835 32.1514 59.3671 32.0319 59.1818C31.9125 58.9965 31.7351 58.8614 31.5004 58.7761H31.5008ZM29.3382 57.4438H30.3479C30.5704 57.4438 30.7532 57.4675 30.8963 57.5154C31.0627 57.5839 31.1457 57.7254 31.1457 57.9399C31.1457 58.1334 31.0832 58.2676 30.9588 58.3425C30.8321 58.4196 30.668 58.4579 30.4665 58.4579H29.3382V57.4438ZM30.9369 60.3639C30.8248 60.4182 30.668 60.4452 30.4665 60.4452H29.3382V59.2188H30.482C30.6816 59.2211 30.8362 59.2471 30.9465 59.2968C31.1439 59.3863 31.2423 59.5506 31.2423 59.7897C31.2423 60.0727 31.1407 60.264 30.9369 60.3639Z" fill="white"/>
<path d="M30.2553 5.71751C31.0508 5.71751 31.5901 5.46785 31.8728 4.96853C32.0246 4.69605 32.1002 4.3154 32.1002 3.82658V1H31.1247V3.82658C31.1247 4.14287 31.0873 4.37382 31.0125 4.51942C30.8963 4.77729 30.6437 4.90646 30.2553 4.90646C29.8669 4.90646 29.6112 4.77729 29.4949 4.51942C29.4202 4.37382 29.3828 4.14287 29.3828 3.82658V1H28.4072V3.82658C28.4072 4.3154 28.4829 4.69605 28.6347 4.96853C28.9192 5.46785 29.4594 5.71751 30.2553 5.71751Z" fill="white"/>
<path d="M38.3739 23.3554L32.1451 31.1219L38.3739 38.8884L30.6074 32.6596L22.8409 38.8884L29.0697 31.1219L22.8409 23.3554L30.6074 29.5842L38.3739 23.3554Z" fill="white" fill-opacity="0.8"/>
<path d="M30.6074 17.1338L32.3879 29.3417L44.5957 31.1221L32.3879 32.9025L30.6074 45.1104L28.827 32.9025L16.6191 31.1221L28.827 29.3417L30.6074 17.1338Z" fill="white"/>
<path d="M28.6328 29.1315L30.3487 31.086C30.4854 31.2417 30.7279 31.2417 30.8646 31.086L32.5804 29.1315L30.6066 16.6191L28.6328 29.1315Z" fill="white"/>
<path d="M32.5801 33.2845L30.8642 31.3301C30.7275 31.1743 30.485 31.1743 30.3483 31.3301L28.6325 33.2845L30.6063 45.7969L32.5801 33.2845Z" fill="white"/>
</svg>
