<svg width="24" height="24" viewBox="0 0 24 24" fill="none" xmlns="http://www.w3.org/2000/svg">
<path fill-rule="evenodd" clip-rule="evenodd" d="M18.3189 14.4331C19.5659 12.8255 20.1536 10.8031 19.9624 8.77757C19.7713 6.752 18.8156 4.87533 17.2899 3.52936C15.7641 2.18339 13.783 1.46922 11.7494 1.53215C9.71575 1.59508 7.78251 2.43037 6.34292 3.8681C4.90207 5.30683 4.06405 7.24082 3.99962 9.27597C3.93518 11.3111 4.6492 13.2942 5.99615 14.8212C7.3431 16.3482 9.22162 17.3041 11.2489 17.4942C13.2762 17.6842 15.2996 17.0941 16.9069 15.8441L16.9499 15.8891L21.1919 20.1321C21.2848 20.225 21.3951 20.2987 21.5165 20.349C21.6379 20.3993 21.768 20.4252 21.8994 20.4252C22.0308 20.4252 22.1609 20.3993 22.2823 20.349C22.4037 20.2987 22.514 20.225 22.6069 20.1321C22.6998 20.0392 22.7735 19.9289 22.8238 19.8075C22.8741 19.6861 22.9 19.556 22.9 19.4246C22.9 19.2932 22.8741 19.1631 22.8238 19.0417C22.7735 18.9203 22.6998 18.81 22.6069 18.7171L18.3639 14.4751C18.3493 14.4607 18.3343 14.4467 18.3189 14.4331ZM16.2429 5.2831C16.8075 5.83858 17.2566 6.50035 17.5641 7.23024C17.8717 7.96013 18.0317 8.74369 18.0349 9.53572C18.0381 10.3278 17.8845 11.1126 17.5829 11.845C17.2813 12.5773 16.8377 13.2427 16.2776 13.8028C15.7176 14.3629 15.0521 14.8065 14.3198 15.1081C13.5874 15.4097 12.8026 15.5633 12.0105 15.5601C11.2185 15.5569 10.4349 15.3969 9.70505 15.0893C8.97517 14.7817 8.3134 14.3327 7.75792 13.7681C6.64784 12.6398 6.02857 11.1185 6.03502 9.53572C6.04146 7.9529 6.67309 6.43675 7.79233 5.31751C8.91156 4.19828 10.4277 3.56665 12.0105 3.5602C13.5934 3.55376 15.1146 4.17302 16.2429 5.2831Z" fill="white"/>
</svg>
