<svg width="62" height="62" viewBox="0 0 62 62" fill="none" xmlns="http://www.w3.org/2000/svg">
<path d="M32.9619 13.0489C32.9313 13.0443 32.9006 13.0566 32.8815 13.081C32.8625 13.1054 32.8581 13.1382 32.87 13.1668L33.7015 15.1604C33.7123 15.1862 33.7349 15.2052 33.7622 15.2112C34.7258 15.4241 35.669 15.7256 36.586 16.1133C38.5314 16.9374 40.2791 18.1174 41.7803 19.6203C43.2814 21.1233 44.46 22.873 45.2831 24.8208C45.6722 25.7425 45.9737 26.691 46.1864 27.6594L46.2702 27.6409L46.1864 27.6594C46.439 28.8093 46.5664 29.9889 46.5664 31.1882C46.5664 31.2356 46.6049 31.274 46.6522 31.274H54.7522C54.793 31.274 54.8283 31.2452 54.8363 31.2051C54.8443 31.165 54.823 31.1248 54.7853 31.109L48.3383 28.4129C47.1381 20.4927 40.8781 14.2356 32.9619 13.0489Z" fill="#1EB2F1" stroke="#1EB2F1" stroke-width="0.171635" stroke-linejoin="round"/>
<path d="M30.2302 14.8287C30.2776 14.8287 30.316 14.7903 30.316 14.7429V6.61914C30.316 6.57824 30.2872 6.54302 30.2471 6.53499C30.207 6.52696 30.1668 6.54835 30.151 6.5861L27.4522 13.055C19.5381 14.258 13.2872 20.5305 12.1065 28.461C12.102 28.4917 12.1143 28.5224 12.1387 28.5414C12.1632 28.5604 12.1959 28.5648 12.2245 28.5528L14.2149 27.7203C14.2406 27.7095 14.2596 27.6869 14.2656 27.6596C14.4782 26.6912 14.7798 25.7427 15.1689 24.821C15.992 22.8732 17.1705 21.1235 18.6717 19.6205C20.1729 18.1176 21.9206 16.9376 23.866 16.1135C24.7862 15.7244 25.733 15.4221 26.6997 15.2092C27.8488 14.9563 29.0274 14.8287 30.2257 14.8287H30.2302Z" fill="#034269" stroke="#034269" stroke-width="0.171635" stroke-linejoin="round"/>
<path d="M30.3097 55.8055L33.0158 49.3192C40.9221 48.1103 47.1653 41.841 48.3451 33.916C48.3496 33.8853 48.3373 33.8546 48.3129 33.8356C48.2884 33.8166 48.2556 33.8122 48.2271 33.8241L46.2367 34.6567C46.2109 34.6674 46.192 34.6901 46.186 34.7174C45.9733 35.6858 45.6718 36.6342 45.2827 37.5559C44.4596 39.5037 43.281 41.2535 41.7799 42.7565C40.2787 44.2594 38.531 45.4394 36.5856 46.2634C35.6709 46.6503 34.7295 46.9513 33.7686 47.1637L33.7686 47.1637C32.6155 47.4193 31.4333 47.5478 30.2304 47.5483C30.1831 47.5483 30.1447 47.5867 30.1447 47.6341V55.7725C30.1447 55.8134 30.1735 55.8486 30.2136 55.8566C30.2537 55.8646 30.2939 55.8432 30.3097 55.8055Z" fill="#034269" stroke="#034269" stroke-width="0.171635" stroke-linejoin="round"/>
<path d="M5.66611 31.2676L12.1131 33.9638C13.3138 41.8853 19.5751 48.1429 27.4926 49.3282C27.5233 49.3328 27.554 49.3205 27.573 49.2961C27.5921 49.2717 27.5965 49.2389 27.5846 49.2103L26.7531 47.2167C26.7423 47.1909 26.7196 47.1719 26.6923 47.1659C25.7279 46.953 24.7833 46.6516 23.8654 46.2633C21.92 45.4393 20.1723 44.2593 18.6711 42.7564C17.17 41.2534 15.9914 39.5036 15.1683 37.5558C14.7792 36.6341 14.4776 35.6857 14.265 34.7173L14.1812 34.7357L14.265 34.7173C14.0124 33.5674 13.885 32.3878 13.885 31.1885C13.885 31.1411 13.8465 31.1027 13.7991 31.1027H5.69922C5.65833 31.1027 5.62312 31.1315 5.61508 31.1716C5.60703 31.2117 5.62839 31.2519 5.66611 31.2676Z" fill="#1EB2F1" stroke="#1EB2F1" stroke-width="0.171635" stroke-linejoin="round"/>
<path d="M4.65837 32.0216C4.6415 31.9468 4.63329 31.8044 4.63329 31.594V31.285C4.63329 30.9627 4.58907 30.7227 4.50063 30.5657C4.41219 30.4086 4.26221 30.2877 4.05023 30.2023C4.3037 30.1152 4.48559 29.9659 4.59546 29.7546C4.70578 29.5437 4.76048 29.3288 4.76048 29.1101C4.76048 28.9294 4.7313 28.7678 4.67341 28.6263C4.61506 28.4849 4.53619 28.3561 4.43636 28.2393C4.31601 28.0978 4.16876 27.9906 3.99553 27.918C3.82184 27.8454 3.5743 27.8057 3.25246 27.7993H1V32.3982H1.93818V30.5949H2.92925C3.21189 30.5949 3.40426 30.6437 3.50729 30.7414C3.61032 30.839 3.66365 31.0348 3.66776 31.3279L3.67414 31.7555C3.67596 31.8906 3.68964 32.023 3.71471 32.1517C3.72702 32.2142 3.74799 32.2964 3.77717 32.3982H4.83342V32.2827C4.74179 32.2265 4.68389 32.1394 4.65882 32.0207L4.65837 32.0216ZM3.51139 29.7596C3.40335 29.8094 3.24152 29.8345 3.02544 29.8345H1.93818V28.599H3.0537C3.26158 28.599 3.41703 28.6259 3.52097 28.6802C3.70605 28.776 3.79814 28.9632 3.79814 29.2416C3.79814 29.4995 3.7024 29.672 3.51139 29.7596Z" fill="#034269"/>
<path d="M58.6614 27.7998L57.8326 31.416L56.9974 27.7998H55.6016V32.3986H56.496V29.2882C56.496 29.1987 56.4951 29.0732 56.4928 28.9121C56.4905 28.751 56.4896 28.6268 56.4896 28.5392L57.353 32.3986H58.2848L59.1542 28.5392C59.1542 28.6264 59.1533 28.751 59.151 28.9121C59.1487 29.0732 59.1478 29.1987 59.1478 29.2882V32.3986H60.0422V27.7998H58.6618H58.6614Z" fill="#034269"/>
<path d="M31.5008 58.7761C31.6545 58.6971 31.7707 58.6095 31.85 58.5141C31.9913 58.3434 32.062 58.1179 32.062 57.8372C32.062 57.5565 31.9913 57.3306 31.85 57.1352C31.6152 56.8171 31.2164 56.6537 30.6534 56.6455H28.4219V61.2443H30.5034C30.7382 61.2443 30.9556 61.2233 31.1562 61.1818C31.3568 61.1403 31.5305 61.0631 31.6782 60.9509C31.809 60.8532 31.9179 60.7322 32.0055 60.5889C32.1427 60.3726 32.2111 60.1284 32.2111 59.8559C32.2111 59.5835 32.1514 59.3671 32.0319 59.1818C31.9125 58.9965 31.7351 58.8614 31.5004 58.7761H31.5008ZM29.3382 57.4438H30.3479C30.5704 57.4438 30.7532 57.4675 30.8963 57.5154C31.0627 57.5839 31.1457 57.7254 31.1457 57.9399C31.1457 58.1334 31.0832 58.2676 30.9588 58.3425C30.8321 58.4196 30.668 58.4579 30.4665 58.4579H29.3382V57.4438ZM30.9369 60.3639C30.8248 60.4182 30.668 60.4452 30.4665 60.4452H29.3382V59.2188H30.482C30.6816 59.2211 30.8362 59.2471 30.9465 59.2968C31.1439 59.3863 31.2423 59.5506 31.2423 59.7897C31.2423 60.0727 31.1407 60.264 30.9369 60.3639Z" fill="#034269"/>
<path d="M30.2544 5.71751C31.0498 5.71751 31.5891 5.46785 31.8718 4.96853C32.0236 4.69605 32.0993 4.3154 32.0993 3.82658V1H31.1237V3.82658C31.1237 4.14287 31.0863 4.37382 31.0116 4.51942C30.8953 4.77729 30.6428 4.90646 30.2544 4.90646C29.8659 4.90646 29.6102 4.77729 29.494 4.51942C29.4192 4.37382 29.3818 4.14287 29.3818 3.82658V1H28.4062V3.82658C28.4062 4.3154 28.4819 4.69605 28.6337 4.96853C28.9182 5.46785 29.4584 5.71751 30.2544 5.71751Z" fill="#034269"/>
<path d="M38.3739 23.3554L32.1451 31.1219L38.3739 38.8884L30.6074 32.6596L22.8409 38.8884L29.0697 31.1219L22.8409 23.3554L30.6074 29.5842L38.3739 23.3554Z" fill="#1EB2F1"/>
<path d="M30.6074 17.1338L32.3879 29.3417L44.5957 31.1221L32.3879 32.9025L30.6074 45.1104L28.827 32.9025L16.6191 31.1221L28.827 29.3417L30.6074 17.1338Z" fill="#034269"/>
<path d="M28.6328 29.1315L30.3487 31.086C30.4854 31.2417 30.7279 31.2417 30.8646 31.086L32.5804 29.1315L30.6066 16.6191L28.6328 29.1315Z" fill="#F8B918"/>
<path d="M32.5801 33.2845L30.8642 31.3301C30.7275 31.1743 30.485 31.1743 30.3483 31.3301L28.6325 33.2845L30.6063 45.7969L32.5801 33.2845Z" fill="#97D222"/>
</svg>
