<svg width="24" height="24" viewBox="0 0 24 24" fill="none" xmlns="http://www.w3.org/2000/svg">
<path d="M12.34 23.78H12.3401C15.3733 23.7773 18.2816 22.5712 20.4264 20.4264C22.5712 18.2816 23.7773 15.3733 23.78 12.3401V12.34C23.78 10.0774 23.1091 7.86558 21.852 5.98428C20.595 4.10298 18.8083 2.63669 16.7179 1.77082C14.6275 0.904957 12.3273 0.678407 10.1082 1.11982C7.88903 1.56124 5.85062 2.65079 4.2507 4.2507C2.65079 5.85062 1.56124 7.88903 1.11982 10.1082C0.678407 12.3273 0.904957 14.6275 1.77082 16.7179C2.63669 18.8083 4.10298 20.595 5.98428 21.852C7.86558 23.1091 10.0774 23.78 12.34 23.78ZM6.92772 4.25218C8.52967 3.1815 10.4132 2.61001 12.34 2.61001C14.9215 2.61 17.3974 3.63482 19.2237 5.45928C21.05 7.28375 22.0774 9.75861 22.08 12.3401C22.082 14.2669 21.5124 16.151 20.4433 17.7541C19.3743 19.3571 17.8538 20.607 16.0742 21.3457C14.2946 22.0845 12.3359 22.2788 10.4459 21.9041C8.55587 21.5294 6.81945 20.6025 5.45629 19.2407C4.09314 17.879 3.16451 16.1435 2.78789 14.2538C2.41126 12.3642 2.60357 10.4053 3.34048 8.62496C4.07738 6.84463 5.32578 5.32286 6.92772 4.25218Z" fill="#034269" stroke="#034269" stroke-width="0.2"/>
<path d="M12.7446 23.5752L12.802 23.6418L12.8754 23.5934C13.6888 23.057 14.2992 22.2636 14.609 21.3397C14.9188 20.4159 14.9102 19.4149 14.5846 18.4965L14.5846 18.4965C14.3082 17.7172 14.3078 16.8668 14.5832 16.0872C14.7413 15.7384 15.0545 15.5302 15.5502 15.4096C16.0508 15.2878 16.7196 15.2599 17.5603 15.26L17.5628 15.2599L17.588 15.2593C19.5752 15.2096 22.1688 15.1449 23.645 12.7931L23.6981 12.7085L23.6136 12.6553L22.3436 11.8553L22.2587 11.8019L22.2055 11.8869C21.7125 12.6747 21 13.0803 20.1823 13.2957C19.3726 13.5091 18.4672 13.5342 17.5769 13.5589L17.5375 13.56C17.5226 13.5604 17.5076 13.5608 17.4927 13.5612C16.6101 13.5857 15.6963 13.611 14.9098 13.8402C14.1041 14.075 13.4234 14.5262 13.0386 15.41L13.0386 15.41L13.0376 15.4125C12.5902 16.5217 12.5469 17.7528 12.9152 18.8907L12.9149 18.8908L12.9178 18.898C13.1665 19.5028 13.1873 20.1773 12.9762 20.7962C12.7652 21.4151 12.3367 21.9365 11.7703 22.2633L11.6657 22.3237L11.7446 22.4152L12.7446 23.5752Z" fill="#034269" stroke="#034269" stroke-width="0.2"/>
<path d="M8.55209 14.1097L8.55208 14.1098L8.55676 14.1099C8.93016 14.1206 9.30222 14.0609 9.65357 13.934L9.65357 13.9341L9.65523 13.9334C10.2552 13.7047 10.7766 13.3079 11.1569 12.7905C11.5365 12.274 11.7595 11.6593 11.7992 11.0196C11.9175 10.123 12.3168 9.28685 12.9398 8.63124C13.5808 8.03933 14.3452 7.59695 15.1777 7.33597C16.0477 7.09944 16.8461 6.65268 17.5028 6.03502C18.16 5.41691 18.6551 4.64661 18.9443 3.79204L18.9753 3.70041L18.8848 3.66637L17.4748 3.13637L17.3763 3.09933L17.3443 3.19965C17.1445 3.82725 16.7855 4.39234 16.3022 4.83979C15.8189 5.28723 15.2278 5.60175 14.5867 5.75264L14.5866 5.75234L14.5792 5.75472C13.52 6.09314 12.5502 6.66464 11.741 7.4272L11.741 7.42713L11.7379 7.43033C10.8779 8.31618 10.3192 9.45059 10.1411 10.6722C10.0307 11.184 9.94594 11.5262 9.79598 11.7804C9.65177 12.0249 9.44269 12.1944 9.06349 12.3428C8.18412 12.4779 7.28542 12.2906 6.53301 11.8154L6.52651 11.8113L6.51946 11.8083L6.49148 11.7961C5.05221 11.1707 3.21271 10.3713 1.29455 11.6365L1.21034 11.692L1.26661 11.7758L2.08661 12.9958L2.14187 13.078L2.2246 13.0235C3.37134 12.2686 4.48608 12.7458 5.84645 13.3303C6.68526 13.773 7.60626 14.0383 8.55209 14.1097Z" fill="#034269" stroke="#034269" stroke-width="0.2"/>
</svg>
