
<svg width="78" height="94" viewBox="0 0 78 94" fill="none" xmlns="http://www.w3.org/2000/svg">
<g filter="url(#filter0_b_362_41727)">
<mask id="path-1-outside-1_362_41727" maskUnits="userSpaceOnUse" x="-1.13375" y="-1.06415" width="79.9424" height="95.9107" fill="black">
<rect fill="white" x="-1.13375" y="-1.06415" width="79.9424" height="95.9107"/>
<path d="M37.5132 67.6727C36.6121 65.4521 35.9634 63.1291 35.567 60.7037C35.2043 58.2646 35.1759 55.925 35.4817 53.685C35.6265 51.6277 35.9889 49.9133 36.5687 48.5416C37.1685 47.1227 37.896 45.6323 38.7513 44.0705C39.6403 42.4951 40.5941 40.4035 41.6128 37.7958C42.3779 35.722 42.6857 33.8729 42.536 32.2487C42.4063 30.5772 41.9866 28.8666 41.2766 27.117C40.908 26.2086 40.4521 25.3748 39.9089 24.6155C39.3994 23.8427 38.7626 23.239 37.9985 22.8045C36.7405 22.0219 35.343 21.6681 33.8061 21.7431C32.2891 21.7709 30.7736 22.0919 29.2595 22.7063C28.1156 23.1704 27.0431 23.7624 26.042 24.4821C25.0745 25.1881 24.3268 26.0009 23.7986 26.9206C23.1433 28.0094 22.7985 29.1877 22.7643 30.4555C22.7638 31.7096 23.0466 32.986 23.6127 34.2845L9.07776 40.1823C8.02072 36.4184 7.70898 32.7047 8.14256 29.0413C8.57614 25.3779 9.75698 22.1557 11.6851 19.3749C13.0841 17.3182 14.8078 15.4824 16.8563 13.8675C18.9049 12.2526 21.0899 10.9741 23.4114 10.0321C27.247 8.47573 31.1097 7.61373 34.9994 7.44609C38.8754 7.2448 42.4766 8.05628 45.8031 9.88052C47.9798 10.9957 49.936 12.5335 51.6719 14.4937C53.3941 16.4203 54.7194 18.5276 55.6477 20.8155C57.1358 24.4829 57.6631 28.1483 57.2295 31.8117C56.7959 35.4751 55.8935 39.0937 54.5222 42.6673C53.9298 44.2009 53.3836 45.5589 52.8838 46.7413C52.4039 47.8765 51.9777 48.9507 51.6052 49.9639C51.2526 50.9299 50.981 51.9022 50.7903 52.8808C50.4762 54.8108 50.4162 56.3046 50.6102 57.3622C50.8043 58.4198 51.2836 59.8907 52.0481 61.7749L37.5132 67.6727ZM45.6007 87.3144L39.7029 72.7795L54.1369 66.9227L60.0347 81.4576L45.6007 87.3144Z"/>
</mask>
<path d="M37.5132 67.6727C36.6121 65.4521 35.9634 63.1291 35.567 60.7037C35.2043 58.2646 35.1759 55.925 35.4817 53.685C35.6265 51.6277 35.9889 49.9133 36.5687 48.5416C37.1685 47.1227 37.896 45.6323 38.7513 44.0705C39.6403 42.4951 40.5941 40.4035 41.6128 37.7958C42.3779 35.722 42.6857 33.8729 42.536 32.2487C42.4063 30.5772 41.9866 28.8666 41.2766 27.117C40.908 26.2086 40.4521 25.3748 39.9089 24.6155C39.3994 23.8427 38.7626 23.239 37.9985 22.8045C36.7405 22.0219 35.343 21.6681 33.8061 21.7431C32.2891 21.7709 30.7736 22.0919 29.2595 22.7063C28.1156 23.1704 27.0431 23.7624 26.042 24.4821C25.0745 25.1881 24.3268 26.0009 23.7986 26.9206C23.1433 28.0094 22.7985 29.1877 22.7643 30.4555C22.7638 31.7096 23.0466 32.986 23.6127 34.2845L9.07776 40.1823C8.02072 36.4184 7.70898 32.7047 8.14256 29.0413C8.57614 25.3779 9.75698 22.1557 11.6851 19.3749C13.0841 17.3182 14.8078 15.4824 16.8563 13.8675C18.9049 12.2526 21.0899 10.9741 23.4114 10.0321C27.247 8.47573 31.1097 7.61373 34.9994 7.44609C38.8754 7.2448 42.4766 8.05628 45.8031 9.88052C47.9798 10.9957 49.936 12.5335 51.6719 14.4937C53.3941 16.4203 54.7194 18.5276 55.6477 20.8155C57.1358 24.4829 57.6631 28.1483 57.2295 31.8117C56.7959 35.4751 55.8935 39.0937 54.5222 42.6673C53.9298 44.2009 53.3836 45.5589 52.8838 46.7413C52.4039 47.8765 51.9777 48.9507 51.6052 49.9639C51.2526 50.9299 50.981 51.9022 50.7903 52.8808C50.4762 54.8108 50.4162 56.3046 50.6102 57.3622C50.8043 58.4198 51.2836 59.8907 52.0481 61.7749L37.5132 67.6727ZM45.6007 87.3144L39.7029 72.7795L54.1369 66.9227L60.0347 81.4576L45.6007 87.3144Z" fill="url(#paint0_radial_362_41727)"/>
<path d="M37.5132 67.6727L36.5866 68.0487L36.9625 68.9753L37.8892 68.5993L37.5132 67.6727ZM35.567 60.7037L34.5779 60.8508L34.579 60.8579L34.5801 60.8649L35.567 60.7037ZM35.4817 53.685L36.4725 53.8202L36.4769 53.7878L36.4792 53.7552L35.4817 53.685ZM36.5687 48.5416L35.6476 48.1523L36.5687 48.5416ZM38.7513 44.0705L37.8803 43.5791L37.8743 43.5902L38.7513 44.0705ZM41.6128 37.7958L42.5443 38.1596L42.5477 38.1508L42.551 38.1419L41.6128 37.7958ZM42.536 32.2487L41.539 32.326L41.5396 32.3332L41.5402 32.3405L42.536 32.2487ZM39.9089 24.6155L39.0741 25.166L39.0846 25.1819L39.0957 25.1974L39.9089 24.6155ZM37.9985 22.8045L37.4703 23.6536L37.487 23.664L37.5042 23.6738L37.9985 22.8045ZM33.8061 21.7431L33.8244 22.7429L33.8396 22.7427L33.8548 22.7419L33.8061 21.7431ZM26.042 24.4821L25.4582 23.6701L25.4525 23.6743L26.042 24.4821ZM23.7986 26.9206L24.6554 27.4363L24.6607 27.4275L24.6658 27.4186L23.7986 26.9206ZM22.7643 30.4555L21.7647 30.4286L21.7643 30.4418L21.7643 30.4551L22.7643 30.4555ZM23.6127 34.2845L23.9887 35.2111L24.9394 34.8254L24.5294 33.8849L23.6127 34.2845ZM9.07776 40.1823L8.11501 40.4527L8.41741 41.5294L9.45376 41.1089L9.07776 40.1823ZM8.14256 29.0413L9.13563 29.1588L8.14256 29.0413ZM11.6851 19.3749L12.5069 19.9447L12.5119 19.9374L11.6851 19.3749ZM16.8563 13.8675L17.4754 14.6528L16.8563 13.8675ZM34.9994 7.44609L35.0424 8.4452L35.0512 8.44474L34.9994 7.44609ZM45.8031 9.88052L45.3222 10.7573L45.3346 10.7641L45.3471 10.7705L45.8031 9.88052ZM51.6719 14.4937L50.9232 15.1567L50.9263 15.1602L51.6719 14.4937ZM57.2295 31.8117L58.2226 31.9292L57.2295 31.8117ZM54.5222 42.6673L55.455 43.0277L55.4559 43.0256L54.5222 42.6673ZM52.8838 46.7413L51.9627 46.3519L51.9627 46.352L52.8838 46.7413ZM51.6052 49.9639L50.6666 49.6188L50.6658 49.621L51.6052 49.9639ZM50.7903 52.8808L49.8087 52.6895L49.8058 52.7048L49.8033 52.7202L50.7903 52.8808ZM50.6102 57.3622L49.6266 57.5426L50.6102 57.3622ZM52.0481 61.7749L52.4241 62.7015L53.3507 62.3255L52.9747 61.3989L52.0481 61.7749ZM45.6007 87.3144L44.6741 87.6904L45.0501 88.617L45.9767 88.241L45.6007 87.3144ZM39.7029 72.7795L39.3269 71.8529L38.4003 72.2289L38.7763 73.1555L39.7029 72.7795ZM54.1369 66.9227L55.0635 66.5467L54.6875 65.62L53.7609 65.996L54.1369 66.9227ZM60.0347 81.4576L60.4107 82.3842L61.3373 82.0082L60.9613 81.0816L60.0347 81.4576ZM38.4398 67.2967C37.5675 65.1469 36.9386 62.8961 36.554 60.5424L34.5801 60.8649C34.9882 63.362 35.6568 65.7572 36.5866 68.0487L38.4398 67.2967ZM36.5562 60.5566C36.2061 58.2027 36.1806 55.9585 36.4725 53.8202L34.4908 53.5497C34.1712 55.8916 34.2025 58.3266 34.5779 60.8508L36.5562 60.5566ZM36.4792 53.7552C36.6191 51.7687 36.9658 50.1705 37.4898 48.931L35.6476 48.1523C35.0119 49.6561 34.634 51.4867 34.4841 53.6147L36.4792 53.7552ZM37.4898 48.931C38.0746 47.5474 38.7869 46.0875 39.6284 44.5509L37.8743 43.5902C37.0052 45.1771 36.2623 46.698 35.6476 48.1523L37.4898 48.931ZM39.6223 44.562C40.5433 42.9297 41.5166 40.7903 42.5443 38.1596L40.6814 37.4319C39.6716 40.0167 38.7373 42.0605 37.8804 43.5791L39.6223 44.562ZM42.551 38.1419C43.3503 35.9753 43.6991 33.9726 43.5318 32.1569L41.5402 32.3405C41.6722 33.7733 41.4055 35.4686 40.6746 37.4496L42.551 38.1419ZM43.533 32.1714C43.3945 30.3852 42.947 28.5741 42.2033 26.741L40.35 27.493C41.0261 29.1591 41.4182 30.7691 41.539 32.326L43.533 32.1714ZM42.2033 26.741C41.8066 25.7634 41.3134 24.86 40.7222 24.0337L39.0957 25.1974C39.5909 25.8896 40.0095 26.6538 40.35 27.493L42.2033 26.741ZM40.7438 24.0651C40.1523 23.1678 39.4013 22.4518 38.4928 21.9352L37.5042 23.6738C38.1239 24.0262 38.6466 24.5175 39.0741 25.166L40.7438 24.0651ZM38.5268 21.9554C37.0892 21.061 35.489 20.6597 33.7573 20.7443L33.8548 22.7419C35.197 22.6764 36.3918 22.9827 37.4703 23.6536L38.5268 21.9554ZM33.7878 20.7433C32.1389 20.7734 30.5025 21.1227 28.8835 21.7796L29.6355 23.6329C31.0446 23.0611 32.4393 22.7683 33.8244 22.7429L33.7878 20.7433ZM28.8835 21.7796C27.6661 22.2736 26.5239 22.904 25.4583 23.6701L26.6257 25.294C27.5622 24.6207 28.565 24.0673 29.6355 23.6329L28.8835 21.7796ZM25.4525 23.6743C24.3864 24.4523 23.5379 25.3666 22.9315 26.4226L24.6658 27.4186C25.1156 26.6353 25.7626 25.9239 26.6315 25.2898L25.4525 23.6743ZM22.9419 26.4049C22.1977 27.6412 21.8035 28.9879 21.7647 30.4286L23.764 30.4824C23.7935 29.3875 24.0888 28.3775 24.6554 27.4363L22.9419 26.4049ZM21.7643 30.4551C21.7637 31.8636 22.082 33.2757 22.696 34.6841L24.5294 33.8849C24.0112 32.6962 23.7639 31.5556 23.7643 30.4559L21.7643 30.4551ZM23.2367 33.3579L8.70177 39.2557L9.45376 41.1089L23.9887 35.2111L23.2367 33.3579ZM10.0405 39.9119C9.01673 36.2664 8.71835 32.6845 9.13563 29.1588L7.1495 28.9238C6.69962 32.7249 7.0247 36.5703 8.11501 40.4527L10.0405 39.9119ZM9.13563 29.1588C9.55175 25.6429 10.6802 22.5792 12.5069 19.9447L10.8633 18.8051C8.83372 21.7323 7.60053 25.1128 7.1495 28.9238L9.13563 29.1588ZM12.5119 19.9374C13.8507 17.9692 15.5032 16.2076 17.4754 14.6528L16.2373 13.0822C14.1124 14.7572 12.3174 16.6673 10.8582 18.8125L12.5119 19.9374ZM17.4754 14.6528C19.453 13.0938 21.5567 11.8639 23.7874 10.9587L23.0354 9.10546C20.6231 10.0843 18.3567 11.4113 16.2373 13.0822L17.4754 14.6528ZM23.7874 10.9587C27.5237 9.44263 31.2741 8.60757 35.0424 8.44516L34.9563 6.44701C30.9453 6.61988 26.9703 7.50882 23.0354 9.10546L23.7874 10.9587ZM35.0512 8.44474C38.7463 8.25285 42.1625 9.02452 45.3222 10.7573L46.2839 9.00372C42.7908 7.08804 39.0045 6.23675 34.9475 6.44743L35.0512 8.44474ZM45.3471 10.7705C47.4053 11.825 49.2641 13.283 50.9232 15.1567L52.4205 13.8308C50.608 11.7839 48.5542 10.1665 46.2591 8.99054L45.3471 10.7705ZM50.9263 15.1602C52.5755 17.0051 53.8379 19.015 54.7211 21.1915L56.5743 20.4395C55.6008 18.0402 54.2126 15.8355 52.4174 13.8273L50.9263 15.1602ZM54.7211 21.1915C56.1505 24.7143 56.6488 28.2103 56.2364 31.6942L58.2226 31.9292C58.6774 28.0862 58.1211 24.2514 56.5743 20.4395L54.7211 21.1915ZM56.2364 31.6942C55.813 35.2721 54.9313 38.81 53.5886 42.3091L55.4559 43.0256C56.8557 39.3774 57.7789 35.6781 58.2226 31.9292L56.2364 31.6942ZM53.5894 42.307C52.9997 43.8333 52.4575 45.1813 51.9627 46.3519L53.8048 47.1307C54.3097 45.9364 54.8598 44.5684 55.455 43.0277L53.5894 42.307ZM51.9627 46.352C51.4775 47.4997 51.0453 48.5888 50.6666 49.6188L52.5437 50.309C52.9101 49.3125 53.3303 48.2532 53.8048 47.1307L51.9627 46.352ZM50.6658 49.621C50.2958 50.6348 50.0098 51.6577 49.8087 52.6895L51.7718 53.072C51.9521 52.1466 52.2094 51.2249 52.5445 50.3068L50.6658 49.621ZM49.8033 52.7202C49.4833 54.6864 49.4015 56.3152 49.6266 57.5426L51.5938 57.1817C51.4309 56.2939 51.4691 54.9351 51.7773 53.0414L49.8033 52.7202ZM49.6266 57.5426C49.8394 58.7024 50.3497 60.2488 51.1215 62.1509L52.9747 61.3989C52.2174 59.5326 51.7691 58.1373 51.5938 57.1817L49.6266 57.5426ZM51.6721 60.8483L37.1372 66.746L37.8892 68.5993L52.4241 62.7015L51.6721 60.8483ZM46.5273 86.9384L40.6295 72.4035L38.7763 73.1555L44.6741 87.6904L46.5273 86.9384ZM40.0789 73.7061L54.5129 67.8493L53.7609 65.996L39.3269 71.8529L40.0789 73.7061ZM53.2103 67.2987L59.1081 81.8336L60.9613 81.0816L55.0635 66.5467L53.2103 67.2987ZM59.6587 80.5309L45.2247 86.3878L45.9767 88.241L60.4107 82.3842L59.6587 80.5309Z" fill="white" mask="url(#path-1-outside-1_362_41727)"/>
</g>
<defs>
<filter id="filter0_b_362_41727" x="-13.4004" y="-13.6747" width="104.796" height="121.051" filterUnits="userSpaceOnUse" color-interpolation-filters="sRGB">
<feFlood flood-opacity="0" result="BackgroundImageFix"/>
<feGaussianBlur in="BackgroundImageFix" stdDeviation="7"/>
<feComposite in2="SourceAlpha" operator="in" result="effect1_backgroundBlur_362_41727"/>
<feBlend mode="normal" in="SourceGraphic" in2="effect1_backgroundBlur_362_41727" result="shape"/>
</filter>
<radialGradient id="paint0_radial_362_41727" cx="0" cy="0" r="1" gradientUnits="userSpaceOnUse" gradientTransform="translate(9.5 16.0001) rotate(51.6839) scale(91.129 37.9195)">
<stop stop-color="white" stop-opacity="0.8"/>
<stop offset="1" stop-color="white" stop-opacity="0.65"/>
</radialGradient>
</defs>
</svg>
