
<svg width="55" height="68" viewBox="0 0 55 68" fill="none" xmlns="http://www.w3.org/2000/svg">
<g filter="url(#filter0_b_362_41728)">
<mask id="path-1-outside-1_362_41728" maskUnits="userSpaceOnUse" x="-0.519451" y="-0.425611" width="56.7375" height="69.5562" fill="black">
<rect fill="white" x="-0.519451" y="-0.425611" width="56.7375" height="69.5562"/>
<path d="M16.7434 44.8855C17.3203 43.2499 18.0831 41.6799 19.0318 40.1754C20.0052 38.6797 21.112 37.3982 22.3522 36.331C23.4176 35.2856 24.4363 34.5304 25.4085 34.0652C26.4142 33.584 27.5233 33.1254 28.736 32.6893C29.9735 32.262 31.4936 31.5861 33.2966 30.6616C34.706 29.9048 35.7597 29.0504 36.4577 28.0984C37.1892 27.1304 37.7823 26.0021 38.2368 24.7135C38.4728 24.0444 38.6258 23.3738 38.6956 22.7018C38.7902 22.0386 38.7347 21.406 38.5291 20.804C38.2228 19.7765 37.6352 18.9144 36.7663 18.2178C35.9309 17.5052 34.9556 16.9522 33.8405 16.5588C32.9979 16.2616 32.1328 16.0679 31.245 15.9777C30.3821 15.8963 29.587 15.978 28.8597 16.2231C27.9822 16.4987 27.2302 16.9719 26.6035 17.6425C26.0016 18.3219 25.5426 19.1492 25.2265 20.1244L14.5209 16.3483C15.7536 13.8015 17.3661 11.6395 19.3583 9.8623C21.3506 8.08506 23.5361 6.90541 25.9148 6.32336C27.6595 5.8799 29.4742 5.71193 31.359 5.81943C33.2437 5.92694 35.0411 6.28226 36.751 6.8854C39.5761 7.88188 42.0828 9.26761 44.271 11.0426C46.468 12.7928 48.0303 14.96 48.9578 17.5442C49.6024 19.1927 49.9249 20.9644 49.9253 22.8593C49.9344 24.7295 49.6417 26.5071 49.0473 28.1922C48.0945 30.8934 46.622 33.1326 44.6298 34.9099C42.6375 36.6871 40.4127 38.2152 37.9554 39.494C36.8987 40.0408 35.9513 40.5147 35.1133 40.9157C34.3087 41.3007 33.5625 41.6784 32.8746 42.0487C32.2202 42.4031 31.6066 42.7996 31.0338 43.2385C29.9378 44.1337 29.1887 44.9144 28.7866 45.5806C28.3844 46.2468 27.9385 47.2738 27.449 48.6616L16.7434 44.8855ZM11.7042 59.4089L15.4804 48.7032L26.1117 52.4532L22.3355 63.1588L11.7042 59.4089Z"/>
</mask>
<path d="M16.7434 44.8855C17.3203 43.2499 18.0831 41.6799 19.0318 40.1754C20.0052 38.6797 21.112 37.3982 22.3522 36.331C23.4176 35.2856 24.4363 34.5304 25.4085 34.0652C26.4142 33.584 27.5233 33.1254 28.736 32.6893C29.9735 32.262 31.4936 31.5861 33.2966 30.6616C34.706 29.9048 35.7597 29.0504 36.4577 28.0984C37.1892 27.1304 37.7823 26.0021 38.2368 24.7135C38.4728 24.0444 38.6258 23.3738 38.6956 22.7018C38.7902 22.0386 38.7347 21.406 38.5291 20.804C38.2228 19.7765 37.6352 18.9144 36.7663 18.2178C35.9309 17.5052 34.9556 16.9522 33.8405 16.5588C32.9979 16.2616 32.1328 16.0679 31.245 15.9777C30.3821 15.8963 29.587 15.978 28.8597 16.2231C27.9822 16.4987 27.2302 16.9719 26.6035 17.6425C26.0016 18.3219 25.5426 19.1492 25.2265 20.1244L14.5209 16.3483C15.7536 13.8015 17.3661 11.6395 19.3583 9.8623C21.3506 8.08506 23.5361 6.90541 25.9148 6.32336C27.6595 5.8799 29.4742 5.71193 31.359 5.81943C33.2437 5.92694 35.0411 6.28226 36.751 6.8854C39.5761 7.88188 42.0828 9.26761 44.271 11.0426C46.468 12.7928 48.0303 14.96 48.9578 17.5442C49.6024 19.1927 49.9249 20.9644 49.9253 22.8593C49.9344 24.7295 49.6417 26.5071 49.0473 28.1922C48.0945 30.8934 46.622 33.1326 44.6298 34.9099C42.6375 36.6871 40.4127 38.2152 37.9554 39.494C36.8987 40.0408 35.9513 40.5147 35.1133 40.9157C34.3087 41.3007 33.5625 41.6784 32.8746 42.0487C32.2202 42.4031 31.6066 42.7996 31.0338 43.2385C29.9378 44.1337 29.1887 44.9144 28.7866 45.5806C28.3844 46.2468 27.9385 47.2738 27.449 48.6616L16.7434 44.8855ZM11.7042 59.4089L15.4804 48.7032L26.1117 52.4532L22.3355 63.1588L11.7042 59.4089Z" fill="url(#paint0_radial_362_41728)"/>
<path d="M16.7434 44.8855L16.0609 44.6447L15.8202 45.3272L16.5027 45.568L16.7434 44.8855ZM19.0318 40.1754L18.4251 39.7806L18.4196 39.7894L19.0318 40.1754ZM22.3522 36.331L22.8243 36.8795L22.8422 36.8641L22.8591 36.8475L22.3522 36.331ZM25.4085 34.0652L25.0961 33.4124L25.4085 34.0652ZM28.736 32.6893L28.4998 32.0052L28.4911 32.0083L28.736 32.6893ZM33.2966 30.6616L33.6268 31.3057L33.6389 31.2992L33.2966 30.6616ZM36.4577 28.0984L35.8802 27.6621L35.8741 27.6705L36.4577 28.0984ZM38.6956 22.7018L37.9791 22.5996L37.9772 22.6133L37.9758 22.627L38.6956 22.7018ZM38.5291 20.804L37.8355 21.0108L37.8396 21.0245L37.8442 21.038L38.5291 20.804ZM36.7663 18.2178L36.2966 18.7684L36.305 18.7755L36.3136 18.7824L36.7663 18.2178ZM31.245 15.9777L31.3182 15.2577L31.3131 15.2572L31.245 15.9777ZM28.8597 16.2231L29.0766 16.9135L29.0837 16.9113L29.0907 16.9089L28.8597 16.2231ZM26.6035 17.6425L26.0747 17.1484L26.0682 17.1554L26.0618 17.1626L26.6035 17.6425ZM25.2265 20.1244L24.9858 20.8069L25.686 21.0539L25.915 20.3476L25.2265 20.1244ZM14.5209 16.3483L13.8695 16.033L13.5169 16.7615L14.2802 17.0308L14.5209 16.3483ZM19.3583 9.8623L19.8401 10.4024L19.3583 9.8623ZM25.9148 6.32336L26.0868 7.02636L26.0931 7.02477L25.9148 6.32336ZM31.359 5.81943L31.3178 6.54197L31.359 5.81943ZM44.271 11.0426L43.8151 11.6047L43.8201 11.6086L44.271 11.0426ZM48.9578 17.5442L48.2767 17.7887L48.2801 17.7983L48.2838 17.8078L48.9578 17.5442ZM49.9253 22.8593L49.2015 22.8595L49.2016 22.8628L49.9253 22.8593ZM44.6298 34.9099L45.1115 35.4499L44.6298 34.9099ZM37.9554 39.494L38.288 40.1367L38.2895 40.136L37.9554 39.494ZM35.1133 40.9157L34.8009 40.2629L34.8009 40.2629L35.1133 40.9157ZM32.8746 42.0487L32.5315 41.4115L32.53 41.4123L32.8746 42.0487ZM31.0338 43.2385L30.5936 42.664L30.5847 42.6709L30.576 42.678L31.0338 43.2385ZM28.7866 45.5806L28.167 45.2066L28.7866 45.5806ZM27.449 48.6616L27.2083 49.3441L27.8908 49.5848L28.1315 48.9023L27.449 48.6616ZM11.7042 59.4089L11.0217 59.1681L10.781 59.8506L11.4635 60.0914L11.7042 59.4089ZM15.4804 48.7032L15.7211 48.0208L15.0386 47.78L14.7979 48.4625L15.4804 48.7032ZM26.1117 52.4532L26.7942 52.6939L27.0349 52.0114L26.3524 51.7707L26.1117 52.4532ZM22.3355 63.1588L22.0948 63.8413L22.7773 64.082L23.018 63.3995L22.3355 63.1588ZM17.4259 45.1262C17.9844 43.5428 18.7233 42.0214 19.6439 40.5614L18.4196 39.7894C17.4429 41.3383 16.6563 42.957 16.0609 44.6447L17.4259 45.1262ZM19.6383 40.5701C20.5778 39.1266 21.6404 37.8983 22.8243 36.8795L21.8802 35.7824C20.5836 36.8981 19.4326 38.2327 18.4252 39.7806L19.6383 40.5701ZM22.8591 36.8475C23.8878 35.8382 24.8424 35.1384 25.7209 34.718L25.0961 33.4124C24.0303 33.9224 22.9474 34.7331 21.8454 35.8144L22.8591 36.8475ZM25.7209 34.718C26.7015 34.2488 27.7877 33.7994 28.9809 33.3703L28.4911 32.0083C27.2589 32.4514 26.1269 32.9192 25.0961 33.4124L25.7209 34.718ZM28.9722 33.3734C30.2543 32.9306 31.808 32.2382 33.6268 31.3056L32.9663 30.0176C31.1793 30.934 29.6926 31.5933 28.4998 32.0052L28.9722 33.3734ZM33.6389 31.2992C35.1114 30.5085 36.261 29.5905 37.0413 28.5264L35.8741 27.6705C35.2583 28.5103 34.3005 29.301 32.9542 30.024L33.6389 31.2992ZM37.0351 28.5348C37.8168 27.5004 38.4431 26.3043 38.9193 24.9542L37.5543 24.4727C37.1215 25.6999 36.5617 26.7605 35.8803 27.6621L37.0351 28.5348ZM38.9193 24.9542C39.1733 24.2341 39.3394 23.508 39.4154 22.7767L37.9758 22.627C37.9121 23.2397 37.7724 23.8546 37.5543 24.4727L38.9193 24.9542ZM39.412 22.8041C39.5219 22.034 39.4584 21.2858 39.2139 20.5701L37.8442 21.038C38.011 21.5262 38.0585 22.0432 37.9791 22.5996L39.412 22.8041ZM39.2226 20.5973C38.8726 19.423 38.198 18.438 37.219 17.6531L36.3136 18.7824C37.0724 19.3908 37.5729 20.1299 37.8355 21.0108L39.2226 20.5973ZM37.236 17.6672C36.328 16.8926 35.2737 16.2969 34.0812 15.8763L33.5997 17.2413C34.6376 17.6074 35.5338 18.1177 36.2966 18.7684L37.236 17.6672ZM34.0812 15.8763C33.1845 15.5601 32.2632 15.3537 31.3182 15.2577L31.1719 16.6977C32.0024 16.7821 32.8113 16.9632 33.5997 17.2413L34.0812 15.8763ZM31.3131 15.2572C30.3622 15.1675 29.4638 15.2559 28.6286 15.5372L29.0907 16.9089C29.7102 16.7002 30.402 16.6251 31.177 16.6982L31.3131 15.2572ZM28.6428 15.5326C27.6464 15.8456 26.7868 16.3863 26.0747 17.1484L27.1323 18.1366C27.6735 17.5574 28.318 17.1518 29.0766 16.9135L28.6428 15.5326ZM26.0618 17.1626C25.3858 17.9256 24.8809 18.8435 24.5381 19.9012L25.915 20.3476C26.2043 19.4549 26.6175 18.7181 27.1452 18.1224L26.0618 17.1626ZM25.4673 19.4419L14.7617 15.6658L14.2802 17.0308L24.9858 20.8069L25.4673 19.4419ZM15.1723 16.6636C16.3662 14.197 17.9227 12.1128 19.8401 10.4024L18.8765 9.32225C16.8094 11.1663 15.141 13.4061 13.8695 16.033L15.1723 16.6636ZM19.8401 10.4024C21.7521 8.69667 23.8333 7.57775 26.0868 7.02633L25.7428 5.62038C23.2389 6.23307 20.949 7.47344 18.8765 9.32225L19.8401 10.4024ZM26.0931 7.02477C27.7627 6.6004 29.5032 6.43847 31.3178 6.54197L31.4002 5.0969C29.4453 4.98539 27.5563 5.15941 25.7365 5.62195L26.0931 7.02477ZM31.3178 6.54197C33.1373 6.64575 34.8672 6.98835 36.5103 7.56789L36.9917 6.2029C35.2149 5.57617 33.3502 5.20812 31.4002 5.0969L31.3178 6.54197ZM36.5103 7.56789C39.2622 8.53859 41.6951 9.88505 43.8151 11.6047L44.7269 10.4805C42.4704 8.65018 39.8899 7.22517 36.9917 6.2029L36.5103 7.56789ZM43.8201 11.6086C45.9145 13.2772 47.3956 15.334 48.2767 17.7887L49.639 17.2997C48.665 14.586 47.0215 12.3084 44.7219 10.4765L43.8201 11.6086ZM48.2838 17.8078C48.8933 19.3665 49.2012 21.0482 49.2015 22.8595L50.649 22.8592C50.6486 20.8805 50.3115 19.0188 49.6318 17.2807L48.2838 17.8078ZM49.2016 22.8628C49.2103 24.6537 48.9303 26.3484 48.3648 27.9515L49.7298 28.433C50.3532 26.6658 50.6585 24.8052 50.649 22.8558L49.2016 22.8628ZM48.3648 27.9515C47.4496 30.5462 46.0426 32.6797 44.148 34.3698L45.1115 35.4499C47.2015 33.5856 48.7395 31.2406 49.7298 28.433L48.3648 27.9515ZM44.148 34.3698C42.2022 36.1056 40.0274 37.5998 37.6213 38.852L38.2895 40.136C40.7981 38.8305 43.0728 37.2686 45.1115 35.4499L44.148 34.3698ZM37.6228 38.8512C36.5711 39.3955 35.6306 39.8659 34.8009 40.2629L35.4257 41.5685C36.2721 41.1635 37.2264 40.6861 38.288 40.1367L37.6228 38.8512ZM34.8009 40.2629C33.9874 40.6521 33.2308 41.035 32.5315 41.4115L33.2176 42.6859C33.8942 42.3217 34.6301 41.9492 35.4257 41.5685L34.8009 40.2629ZM32.53 41.4123C31.8432 41.7842 31.1975 42.2013 30.5936 42.664L31.474 43.813C32.0156 43.398 32.5971 43.0219 33.2192 42.6851L32.53 41.4123ZM30.576 42.678C29.4594 43.59 28.6337 44.4334 28.167 45.2066L29.4061 45.9546C29.7438 45.3954 30.4162 44.6774 31.4916 43.799L30.576 42.678ZM28.167 45.2066C27.726 45.9371 27.2607 47.0199 26.7665 48.4209L28.1315 48.9023C28.6164 47.5277 29.0428 46.5565 29.4061 45.9546L28.167 45.2066ZM27.6898 47.9791L16.9842 44.203L16.5027 45.568L27.2083 49.3441L27.6898 47.9791ZM12.3867 59.6496L16.1629 48.944L14.7979 48.4625L11.0217 59.1681L12.3867 59.6496ZM15.2397 49.3857L25.8709 53.1357L26.3524 51.7707L15.7211 48.0208L15.2397 49.3857ZM25.4292 52.2124L21.653 62.918L23.018 63.3995L26.7942 52.6939L25.4292 52.2124ZM22.5762 62.4763L11.945 58.7264L11.4635 60.0914L22.0948 63.8413L22.5762 62.4763Z" fill="white" mask="url(#path-1-outside-1_362_41728)"/>
</g>
<defs>
<filter id="filter0_b_362_41728" x="-9.43079" y="-9.17297" width="73.9333" height="86.9741" filterUnits="userSpaceOnUse" color-interpolation-filters="sRGB">
<feFlood flood-opacity="0" result="BackgroundImageFix"/>
<feGaussianBlur in="BackgroundImageFix" stdDeviation="5.06598"/>
<feComposite in2="SourceAlpha" operator="in" result="effect1_backgroundBlur_362_41728"/>
<feBlend mode="normal" in="SourceGraphic" in2="effect1_backgroundBlur_362_41728" result="shape"/>
</filter>
<radialGradient id="paint0_radial_362_41728" cx="0" cy="0" r="1" gradientUnits="userSpaceOnUse" gradientTransform="translate(26.382 3.44854) rotate(93.178) scale(66.0602 27.5193)">
<stop stop-color="white" stop-opacity="0.8"/>
<stop offset="1" stop-color="white" stop-opacity="0.65"/>
</radialGradient>
</defs>
</svg>
