
<svg width="34" height="42" viewBox="0 0 34 42" fill="none" xmlns="http://www.w3.org/2000/svg">
<g filter="url(#filter0_b_362_41729)">
<mask id="path-1-outside-1_362_41729" maskUnits="userSpaceOnUse" x="-0.777813" y="-0.902012" width="35.7998" height="49.552" fill="black">
<rect fill="white" x="-0.777813" y="-0.902012" width="35.7998" height="49.552"/>
<path d="M10.6425 33.3922C10.8166 32.0825 11.1395 30.7925 11.6113 29.5224C12.1029 28.2549 12.7275 27.1262 13.4851 26.1364C14.1157 25.1903 14.757 24.4678 15.409 23.9688C16.0835 23.4526 16.8386 22.937 17.6745 22.4221C18.5302 21.9098 19.5578 21.1679 20.7572 20.1965C21.6895 19.4116 22.3414 18.6097 22.7128 17.7907C23.1067 16.9545 23.3722 16.0204 23.5094 14.9885C23.5806 14.4527 23.5897 13.9289 23.5365 13.4169C23.5033 12.9077 23.3629 12.4447 23.1153 12.0281C22.7261 11.3099 22.1531 10.7592 21.3962 10.3758C20.6619 9.9753 19.8482 9.71568 18.9552 9.59698C18.2805 9.50729 17.6052 9.4983 16.9292 9.57C16.2731 9.64434 15.6931 9.82977 15.1892 10.1263C14.5782 10.4692 14.0915 10.9396 13.7293 11.5377C13.3869 12.1384 13.1742 12.8271 13.0912 13.6036L4.5185 12.4641C5.03888 10.3724 5.90264 8.50814 7.10978 6.87127C8.31691 5.23439 9.76167 4.0128 11.444 3.2065C12.6754 2.60278 14.0021 2.19348 15.4241 1.97861C16.8461 1.76374 18.2417 1.74731 19.611 1.92933C21.8732 2.23005 23.959 2.87081 25.8683 3.85163C27.7802 4.8126 29.2842 6.18382 30.3803 7.9653C31.1189 9.09342 31.6366 10.3638 31.9335 11.7766C32.233 13.1694 32.2931 14.5406 32.1137 15.89C31.8262 18.053 31.0789 19.9529 29.8717 21.5898C28.6646 23.2267 27.2451 24.7142 25.6132 26.0522C24.911 26.6253 24.2788 27.1269 23.7168 27.5571C23.1772 27.97 22.68 28.3684 22.225 28.7522C21.7926 29.1189 21.3972 29.5106 21.0389 29.9274C20.3619 30.7664 19.9256 31.4657 19.7301 32.0254C19.5345 32.585 19.3629 33.4205 19.2152 34.5318L10.6425 33.3922ZM9.15884 45.009L10.2984 36.4363L18.8116 37.5679L17.672 46.1406L9.15884 45.009Z"/>
</mask>
<path d="M10.6425 33.3922L10.0959 33.3195L10.0233 33.8661L10.5698 33.9387L10.6425 33.3922ZM11.6113 29.5224L11.0972 29.323L11.0944 29.3304L11.6113 29.5224ZM13.4851 26.1364L13.9229 26.4715L13.9338 26.4572L13.9438 26.4422L13.4851 26.1364ZM15.409 23.9688L15.0739 23.531L15.409 23.9688ZM17.6745 22.4221L17.3913 21.949L17.3853 21.9527L17.6745 22.4221ZM20.7572 20.1965L21.1043 20.625L21.1123 20.6182L20.7572 20.1965ZM22.7128 17.7907L22.214 17.5557L22.2107 17.563L22.7128 17.7907ZM23.5365 13.4169L22.9864 13.4529L22.9871 13.4634L22.9882 13.4738L23.5365 13.4169ZM23.1153 12.0281L22.6306 12.2908L22.6358 12.3004L22.6413 12.3097L23.1153 12.0281ZM21.3962 10.3758L21.1322 10.8599L21.1396 10.8639L21.1471 10.8677L21.3962 10.3758ZM16.9292 9.57L16.8711 9.02173L16.8672 9.02217L16.9292 9.57ZM15.1892 10.1263L15.4591 10.6072L15.4688 10.6015L15.1892 10.1263ZM13.7293 11.5377L13.2577 11.2521L13.2539 11.2584L13.2503 11.2647L13.7293 11.5377ZM13.0912 13.6037L13.0185 14.1502L13.5793 14.2247L13.6394 13.6623L13.0912 13.6037ZM4.5185 12.4641L3.98348 12.331L3.83461 12.9294L4.44585 13.0106L4.5185 12.4641ZM7.10978 6.87127L7.5535 7.19849L7.10978 6.87127ZM11.444 3.2065L11.6823 3.7037L11.6868 3.70153L11.444 3.2065ZM15.4241 1.97861L15.5065 2.52375L15.4241 1.97861ZM25.8683 3.85163L25.6163 4.34205L25.6207 4.34423L25.8683 3.85163ZM30.3803 7.9653L29.9107 8.2542L29.9148 8.26081L29.919 8.2673L30.3803 7.9653ZM31.9335 11.7766L31.394 11.8899L31.3945 11.8925L31.9335 11.7766ZM29.8717 21.5898L30.3155 21.917L29.8717 21.5898ZM25.6132 26.0522L25.9618 26.4794L25.9628 26.4786L25.6132 26.0522ZM23.7168 27.5571L23.3817 27.1193L23.7168 27.5571ZM22.225 28.7522L21.8695 28.3309L21.8685 28.3317L22.225 28.7522ZM21.0389 29.9274L20.6208 29.568L20.6152 29.5745L20.6098 29.5812L21.0389 29.9274ZM19.7301 32.0254L19.2096 31.8435L19.7301 32.0254ZM19.2152 34.5318L19.1425 35.0783L19.689 35.1509L19.7617 34.6044L19.2152 34.5318ZM9.15884 45.009L8.61232 44.9363L8.53967 45.4828L9.08619 45.5555L9.15884 45.009ZM10.2984 36.4363L10.3711 35.8898L9.82453 35.8171L9.75188 36.3636L10.2984 36.4363ZM18.8116 37.5679L19.3581 37.6406L19.4307 37.094L18.8842 37.0214L18.8116 37.5679ZM17.672 46.1406L17.5993 46.6871L18.1459 46.7598L18.2185 46.2133L17.672 46.1406ZM11.189 33.4648C11.3575 32.1969 11.6703 30.947 12.1281 29.7144L11.0944 29.3304C10.6087 30.6381 10.2756 31.968 10.0959 33.3195L11.189 33.4648ZM12.1253 29.7218C12.5997 28.4985 13.1997 27.4163 13.9229 26.4715L13.0473 25.8013C12.2552 26.8361 11.606 28.0113 11.0972 29.323L12.1253 29.7218ZM13.9438 26.4422C14.5528 25.5286 15.1549 24.8575 15.7441 24.4066L15.0739 23.531C14.3591 24.078 13.6787 24.852 13.0263 25.8306L13.9438 26.4422ZM15.7441 24.4066C16.4017 23.9033 17.1413 23.3982 17.9637 22.8915L17.3853 21.9527C16.536 22.4759 15.7652 23.0019 15.0739 23.531L15.7441 24.4066ZM17.9577 22.8951C18.8443 22.3644 19.8942 21.6049 21.1042 20.6249L20.4102 19.768C19.2213 20.731 18.2161 21.4553 17.3913 21.9491L17.9577 22.8951ZM21.1123 20.6182C22.0863 19.7983 22.7998 18.9339 23.2149 18.0184L22.2107 17.563C21.8831 18.2855 21.2928 19.025 20.4022 19.7747L21.1123 20.6182ZM23.2116 18.0256C23.6325 17.1321 23.9122 16.1423 24.0559 15.0612L22.9629 14.9159C22.8322 15.8985 22.5809 16.7769 22.214 17.5558L23.2116 18.0256ZM24.0559 15.0612C24.1326 14.4846 24.1427 13.9172 24.0849 13.36L22.9882 13.4738C23.0366 13.9406 23.0287 14.4209 22.9629 14.9159L24.0559 15.0612ZM24.0867 13.381C24.0481 12.7897 23.8836 12.2418 23.5893 11.7465L22.6413 12.3097C22.8421 12.6476 22.9585 13.0256 22.9864 13.4529L24.0867 13.381ZM23.6 11.7654C23.1553 10.9447 22.4981 10.3159 21.6454 9.884L21.1471 10.8677C21.8081 11.2024 22.2969 11.6751 22.6306 12.2908L23.6 11.7654ZM21.6602 9.89183C20.862 9.45647 19.9828 9.17739 19.0279 9.05045L18.8826 10.1435C19.7137 10.254 20.4617 10.4941 21.1322 10.8599L21.6602 9.89183ZM19.0279 9.05045C18.3099 8.95501 17.5906 8.94542 16.8711 9.02175L16.9874 10.1183C17.6198 10.0512 18.2512 10.0596 18.8826 10.1435L19.0279 9.05045ZM16.8672 9.02217C16.1442 9.10409 15.4882 9.31063 14.9096 9.65114L15.4688 10.6015C15.898 10.3489 16.4021 10.1846 16.9913 10.1178L16.8672 9.02217ZM14.9194 9.64549C14.2256 10.0348 13.6694 10.5725 13.2577 11.2521L14.2009 11.8233C14.5137 11.3068 14.9308 10.9035 15.459 10.6071L14.9194 9.64549ZM13.2503 11.2647C12.8658 11.9394 12.633 12.7028 12.543 13.545L13.6394 13.6623C13.7154 12.9514 13.9081 12.3375 14.2083 11.8107L13.2503 11.2647ZM13.1638 13.0571L4.59115 11.9176L4.44585 13.0106L13.0185 14.1502L13.1638 13.0571ZM5.05352 12.5972C5.55753 10.5713 6.39174 8.77384 7.5535 7.19849L6.66606 6.54404C5.41355 8.24244 4.52024 10.1735 3.98348 12.331L5.05352 12.5972ZM7.5535 7.19849C8.71203 5.62752 10.0885 4.46754 11.6823 3.70368L11.2058 2.70932C9.43485 3.55805 7.9218 4.84125 6.66606 6.54404L7.5535 7.19849ZM11.6868 3.70153C12.8651 3.12379 14.1374 2.73062 15.5065 2.52375L15.3417 1.43347C13.8668 1.65635 12.4857 2.08177 11.2013 2.71147L11.6868 3.70153ZM15.5065 2.52375C16.8792 2.31632 18.2226 2.30096 19.5383 2.47585L19.6836 1.38281C18.2608 1.19367 16.813 1.21116 15.3417 1.43347L15.5065 2.52375ZM19.5383 2.47585C21.742 2.76878 23.7666 3.39182 25.6164 4.34203L26.1202 3.36122C24.1513 2.3498 22.0044 1.69131 19.6836 1.38281L19.5383 2.47585ZM25.6207 4.34423C27.4434 5.26035 28.8696 6.56201 29.9107 8.2542L30.8498 7.6764C29.6989 5.80563 28.1171 4.36485 26.1159 3.35902L25.6207 4.34423ZM29.919 8.2673C30.6174 9.33402 31.1102 10.5396 31.394 11.8899L32.4731 11.6632C32.163 10.188 31.6203 8.85282 30.8415 7.6633L29.919 8.2673ZM31.3945 11.8925C31.6813 13.2263 31.7378 14.5336 31.5672 15.8173L32.6602 15.9626C32.8484 14.5475 32.7847 13.1126 32.4725 11.6606L31.3945 11.8925ZM31.5672 15.8173C31.291 17.8951 30.576 19.706 29.428 21.2626L30.3155 21.917C31.5818 20.1999 32.3614 18.2109 32.6602 15.9626L31.5672 15.8173ZM29.428 21.2626C28.249 22.8613 26.8615 24.3157 25.2636 25.6259L25.9628 26.4786C27.6287 25.1126 29.0802 23.5921 30.3155 21.917L29.428 21.2626ZM25.2646 25.6251C24.5657 26.1955 23.9381 26.6934 23.3817 27.1193L24.0519 27.9949C24.6195 27.5605 25.2563 27.0551 25.9618 26.4794L25.2646 25.6251ZM23.3817 27.1193C22.8361 27.5368 22.332 27.9407 21.8695 28.3309L22.5806 29.1736C23.0279 28.7962 23.5183 28.4033 24.0519 27.9949L23.3817 27.1193ZM21.8685 28.3317C21.4147 28.7165 20.9986 29.1285 20.6208 29.568L21.457 30.2868C21.7959 29.8926 22.1705 29.5212 22.5816 29.1728L21.8685 28.3317ZM20.6098 29.5812C19.9201 30.4359 19.4366 31.194 19.2096 31.8435L20.2505 32.2072C20.4147 31.7374 20.8037 31.0968 21.468 30.2736L20.6098 29.5812ZM19.2096 31.8435C18.9952 32.4572 18.8178 33.3373 18.6686 34.4591L19.7617 34.6044C19.908 33.5037 20.0739 32.7129 20.2505 32.2072L19.2096 31.8435ZM19.2878 33.9852L10.7151 32.8457L10.5698 33.9387L19.1425 35.0783L19.2878 33.9852ZM9.70536 45.0816L10.8449 36.5089L9.75188 36.3636L8.61232 44.9363L9.70536 45.0816ZM10.2258 36.9828L18.7389 38.1144L18.8842 37.0214L10.3711 35.8898L10.2258 36.9828ZM18.265 37.4953L17.1255 46.068L18.2185 46.2133L19.3581 37.6406L18.265 37.4953ZM17.7446 45.5941L9.23149 44.4624L9.08619 45.5555L17.5993 46.6871L17.7446 45.5941Z" fill="white" mask="url(#path-1-outside-1_362_41729)"/>
</g>
<defs>
<filter id="filter0_b_362_41729" x="-7.37046" y="-7.57774" width="48.8093" height="62.7981" filterUnits="userSpaceOnUse" color-interpolation-filters="sRGB">
<feFlood flood-opacity="0" result="BackgroundImageFix"/>
<feGaussianBlur in="BackgroundImageFix" stdDeviation="3.8593"/>
<feComposite in2="SourceAlpha" operator="in" result="effect1_backgroundBlur_362_41729"/>
<feBlend mode="normal" in="SourceGraphic" in2="effect1_backgroundBlur_362_41729" result="shape"/>
</filter>
</defs>
</svg>
