<svg width="139" height="130" viewBox="0 0 139 130" fill="none" xmlns="http://www.w3.org/2000/svg">
<path d="M53.9424 92.5997L120.311 19.0192L37.5853 79.6285M53.9424 92.5997C49.8743 98.12 40.9614 109.778 37.855 112.247M53.9424 92.5997L61.3658 98.775M53.9424 92.5997L37.5853 79.6285M37.5853 79.6285C27.5244 71.5473 6.62414 54.5629 3.5105 51.275C0.396857 47.9872 3.47914 44.8878 5.40948 43.7491C45.0736 30.53 125.696 3.77093 130.874 2.48698C136.052 1.20302 137.057 5.50747 136.912 7.82019C126.681 44.7109 105.684 119.765 103.537 124.855C101.39 129.945 97.4105 128.624 95.6891 127.327L61.3658 98.775M37.5853 79.6285L34.9074 109.576C34.5957 111.495 34.7487 114.716 37.855 112.247M37.855 112.247L61.3658 98.775" stroke="white" stroke-opacity="0.7" stroke-width="3" stroke-linejoin="round"/>
</svg>
