<svg width="22" height="24" viewBox="0 0 22 24" fill="none" xmlns="http://www.w3.org/2000/svg">
<path d="M2.85042 17.2416L2.85032 17.242L2.85944 17.2434C2.93033 17.2542 3.00242 17.2545 3.07337 17.2443C3.21935 17.2394 3.36232 17.2013 3.49139 17.1329L3.49142 17.1329L3.49453 17.1311L20.4145 7.36112L20.4145 7.36113L20.416 7.36026C20.6059 7.24624 20.7465 7.06547 20.8103 6.8533L20.8104 6.85332L20.8113 6.84969C20.8395 6.74134 20.846 6.6285 20.8304 6.51764C20.8149 6.40691 20.7776 6.30033 20.7208 6.20402C19.3098 3.76516 16.9878 1.98665 14.2656 1.25971C11.5432 0.53273 8.64353 0.916991 6.20445 2.32796C3.76537 3.73893 1.98669 6.06104 1.25971 8.78343C0.532778 11.5057 0.916941 14.4051 2.32768 16.8441C2.38315 16.9424 2.45807 17.0283 2.54785 17.0966C2.63779 17.165 2.74075 17.2143 2.85042 17.2416ZM11.5143 2.59452L11.5149 2.59452C12.9555 2.58938 14.3759 2.93406 15.654 3.59893C16.8999 4.24707 17.9743 5.18059 18.7898 6.3227L3.40893 15.2134C2.79633 13.8814 2.52202 12.4182 2.61117 10.9537C2.70252 9.45313 3.1725 8.00014 3.97725 6.73031C4.782 5.46048 5.8953 4.4152 7.21327 3.69199C8.53125 2.96878 10.0109 2.59122 11.5143 2.59452Z" fill="#034269" stroke="#034269" stroke-width="0.2"/>
<path d="M17.7738 23.1842L17.7744 23.1842C17.9195 23.1849 18.0626 23.1501 18.1912 23.0828L18.1912 23.0829L18.1957 23.0803C18.3846 22.9689 18.5231 22.7887 18.5822 22.5775C18.6413 22.3663 18.6165 22.1404 18.513 21.947L18.513 21.947L18.5115 21.9443L12.2615 11.0843L12.2615 11.0842C12.1487 10.8889 11.963 10.7463 11.7452 10.6878C11.5274 10.6294 11.2952 10.6599 11.0999 10.7726C10.9045 10.8853 10.7619 11.071 10.7035 11.2888C10.645 11.5067 10.6755 11.7388 10.7882 11.9342L10.7882 11.9342L17.0382 22.7542C17.1129 22.8836 17.22 22.9913 17.349 23.0667C17.478 23.1421 17.6244 23.1826 17.7738 23.1842Z" fill="#034269" stroke="#034269" stroke-width="0.2"/>
<path d="M8.16406 23.1845H20.8141C21.0395 23.1845 21.2557 23.0949 21.4151 22.9355C21.5745 22.7761 21.6641 22.5599 21.6641 22.3345C21.6641 22.109 21.5745 21.8928 21.4151 21.7334C21.2557 21.574 21.0395 21.4845 20.8141 21.4845H8.16406C7.93863 21.4845 7.72243 21.574 7.56302 21.7334C7.40362 21.8928 7.31406 22.109 7.31406 22.3345C7.31406 22.5599 7.40362 22.7761 7.56302 22.9355C7.72243 23.0949 7.93863 23.1845 8.16406 23.1845Z" fill="#034269" stroke="#034269" stroke-width="0.2"/>
<path d="M14.1564 10.0426L14.1561 10.0428L14.889 10.4144C15.0461 10.4069 15.1981 10.3564 15.3285 10.2684C15.5133 10.1532 15.6461 9.97074 15.6989 9.75948C15.7518 9.54788 15.7203 9.32402 15.6111 9.13524C14.6832 7.46169 13.4318 5.98928 11.9298 4.80358C10.4278 3.6179 8.70519 2.74258 6.86198 2.22849C6.7529 2.19569 6.63834 2.18514 6.5251 2.19748C6.4115 2.20986 6.30155 2.24503 6.20184 2.30087C6.10214 2.35671 6.01471 2.43208 5.9448 2.52248C5.87489 2.61288 5.82393 2.71645 5.79495 2.827C5.76598 2.93754 5.7596 3.0528 5.77619 3.16587C5.79278 3.27894 5.832 3.3875 5.8915 3.48507C5.95101 3.58263 6.02957 3.6672 6.12251 3.7337C6.21461 3.79962 6.31895 3.84646 6.42939 3.87147C8.06086 4.33817 9.58365 5.12362 10.9097 6.18243C12.2365 7.24184 13.3401 8.55388 14.1564 10.0426Z" fill="#034269" stroke="#034269" stroke-width="0.2"/>
<path d="M8.16416 14.3045L8.16416 14.3053L8.17707 14.3037C8.32644 14.2851 8.46714 14.2236 8.58226 14.1268C8.77062 14.0186 8.91053 13.8423 8.97302 13.634C9.03648 13.4225 9.01512 13.1945 8.91345 12.9985L8.91364 12.9984L8.91023 12.9927C8.03302 11.5428 7.45316 9.93284 7.20445 8.25658C6.95577 6.58055 7.04312 4.87178 7.46141 3.22984C7.49039 3.12216 7.4979 3.00982 7.4835 2.89924C7.46907 2.7884 7.43293 2.6815 7.37714 2.58465C7.32134 2.48781 7.247 2.40291 7.15835 2.33483C7.06971 2.26675 6.96851 2.21682 6.86055 2.1879L6.86055 2.1879L6.85948 2.18762C6.642 2.13194 6.41138 2.16349 6.21686 2.27555C6.02234 2.38762 5.87935 2.57129 5.81842 2.78736L5.8184 2.78735L5.81783 2.78956C5.33871 4.64991 5.23351 6.58684 5.50833 8.48814C5.78309 10.3889 6.4322 12.2164 7.41809 13.8646C7.49227 13.9971 7.60024 14.1076 7.73102 14.1849C7.86225 14.2624 8.01174 14.3037 8.16416 14.3045Z" fill="#034269" stroke="#034269" stroke-width="0.2"/>
</svg>
